<svg xmlns="http://www.w3.org/2000/svg" width="24" height="24" viewBox="0 0 24 24" fill="currentColor"><circle cx="6.5014" cy="6.50024" r="1.49951"></circle><path d="M18.445 1H5.56A4.565 4.565 0 0 0 1 5.56v12.884a4.565 4.565 0 0 0 4.56 4.559h12.885a4.565 4.565 0 0 0 4.56-4.559V5.56A4.565 4.565 0 0 0 18.445 1zm2.56 17.444a2.562 2.562 0 0 1-2.56 2.559H5.56c-1.236 0-2.27-.88-2.508-2.047l3.483-3.483 2.741 2.74a1.91 1.91 0 0 0 2.699 0l5.468-5.467 3.562 3.563v2.135zm0-4.964-2.213-2.213a1.894 1.894 0 0 0-1.349-.559h-.002c-.51 0-.988.2-1.346.559l-5.469 5.467-2.742-2.742a1.91 1.91 0 0 0-2.697.001L3 16.18V5.56A2.563 2.563 0 0 1 5.56 3h12.885a2.563 2.563 0 0 1 2.56 2.56v7.92z"></path></svg>
